<svg xmlns="http://www.w3.org/2000/svg" xmlns:xlink="http://www.w3.org/1999/xlink" width="1000" zoomAndPan="magnify" viewBox="0 0 750 749.999995" height="1000" preserveAspectRatio="xMidYMid meet" version="1.0"><defs><g/></defs><g fill="#24429b" fill-opacity="1"><g transform="translate(0.165337, 434.6221)"><g><path d="M 66.140625 -6.515625 C 66.140625 -9.503906 65.9375 -12.535156 65.53125 -15.609375 C 65.125 -18.691406 64.921875 -21.679688 64.921875 -24.578125 L 64.921875 -28.25 C 64.460938 -31.78125 63.914062 -35.921875 63.28125 -40.671875 C 62.65625 -45.429688 61.84375 -49.9375 60.84375 -54.1875 C 59.84375 -58.445312 58.617188 -62.066406 57.171875 -65.046875 C 55.722656 -68.035156 53.914062 -69.53125 51.75 -69.53125 C 48.570312 -69.53125 45.304688 -68.054688 41.953125 -65.109375 C 38.609375 -62.171875 35.804688 -57.894531 33.546875 -52.28125 C 32.460938 -49.113281 31.710938 -45.765625 31.296875 -42.234375 C 30.890625 -38.703125 30.550781 -34.988281 30.28125 -31.09375 C 30.007812 -27.207031 29.757812 -23.203125 29.53125 -19.078125 C 29.3125 -14.960938 28.882812 -10.6875 28.25 -6.25 C 28.070312 -5.789062 27.910156 -5.242188 27.765625 -4.609375 C 27.628906 -3.984375 27.519531 -3.441406 27.4375 -2.984375 L 10.734375 -2.984375 L 10.734375 -13.984375 C 10.640625 -14.890625 10.546875 -15.976562 10.453125 -17.25 C 10.367188 -18.519531 10.257812 -19.8125 10.125 -21.125 C 9.988281 -22.4375 9.875 -23.722656 9.78125 -24.984375 C 9.6875 -26.253906 9.59375 -27.34375 9.5 -28.25 C 9.5 -35.582031 9.203125 -42.914062 8.609375 -50.25 C 8.023438 -57.582031 7.644531 -65.050781 7.46875 -72.65625 L 10.59375 -73.34375 C 10.863281 -73.34375 11.15625 -73.09375 11.46875 -72.59375 C 11.789062 -72.09375 12.0625 -71.160156 12.28125 -69.796875 C 12.507812 -68.441406 12.738281 -66.519531 12.96875 -64.03125 C 13.195312 -61.539062 13.398438 -58.304688 13.578125 -54.328125 C 13.671875 -54.328125 13.804688 -54.367188 13.984375 -54.453125 C 14.347656 -54.640625 14.617188 -54.734375 14.796875 -54.734375 C 14.796875 -55.367188 14.773438 -56 14.734375 -56.625 C 14.691406 -57.257812 14.671875 -57.894531 14.671875 -58.53125 C 14.671875 -66.320312 15.191406 -72.320312 16.234375 -76.53125 C 17.273438 -80.738281 18.15625 -82.84375 18.875 -82.84375 C 19.414062 -82.84375 19.957031 -81.664062 20.5 -79.3125 C 21.050781 -76.957031 21.640625 -73.242188 22.265625 -68.171875 C 23.804688 -70.617188 25.570312 -72.972656 27.5625 -75.234375 C 29.5625 -77.503906 31.804688 -79.472656 34.296875 -81.140625 C 36.785156 -82.816406 39.476562 -84.148438 42.375 -85.140625 C 45.269531 -86.140625 48.4375 -86.640625 51.875 -86.640625 C 54.863281 -86.640625 57.488281 -86.003906 59.75 -84.734375 C 62.019531 -83.472656 64.035156 -81.820312 65.796875 -79.78125 C 67.566406 -77.75 69.0625 -75.441406 70.28125 -72.859375 C 71.5 -70.285156 72.5625 -67.707031 73.46875 -65.125 C 74.375 -62.539062 75.117188 -60.046875 75.703125 -57.640625 C 76.296875 -55.242188 76.820312 -53.234375 77.28125 -51.609375 C 77.28125 -51.429688 77.320312 -51.226562 77.40625 -51 C 77.5 -50.769531 77.59375 -50.566406 77.6875 -50.390625 C 78.769531 -53.285156 80.125 -56.609375 81.75 -60.359375 C 83.382812 -64.117188 85.421875 -67.675781 87.859375 -71.03125 C 90.304688 -74.382812 93.179688 -77.210938 96.484375 -79.515625 C 99.796875 -81.828125 103.625 -82.984375 107.96875 -82.984375 C 112.226562 -82.984375 115.847656 -81.847656 118.828125 -79.578125 C 121.816406 -77.316406 124.328125 -74.421875 126.359375 -70.890625 C 128.398438 -67.359375 130.03125 -63.441406 131.25 -59.140625 C 132.476562 -54.835938 133.410156 -50.628906 134.046875 -46.515625 C 134.679688 -42.398438 135.085938 -38.617188 135.265625 -35.171875 C 135.453125 -31.734375 135.546875 -29.109375 135.546875 -27.296875 C 135.546875 -24.398438 135.429688 -22.269531 135.203125 -20.90625 C 134.972656 -19.550781 134.363281 -18.875 133.375 -18.875 C 133.1875 -22.5 133.023438 -26.164062 132.890625 -29.875 C 132.753906 -33.59375 132.484375 -37.328125 132.078125 -41.078125 C 131.671875 -44.835938 131.101562 -48.53125 130.375 -52.15625 C 129.65625 -55.6875 128.707031 -59.171875 127.53125 -62.609375 C 129.789062 -55.453125 131.101562 -48.300781 131.46875 -41.15625 C 131.914062 -33.90625 132.273438 -26.75 132.546875 -19.6875 C 131.921875 -20.320312 131.425781 -20.640625 131.0625 -20.640625 C 130.789062 -20.640625 130.609375 -20.457031 130.515625 -20.09375 L 130.515625 -16.03125 C 130.515625 -14.851562 130.535156 -13.628906 130.578125 -12.359375 C 130.628906 -11.085938 130.742188 -10 130.921875 -9.09375 C 130.742188 -5.382812 130.585938 -2.738281 130.453125 -1.15625 C 130.316406 0.425781 129.972656 1.445312 129.421875 1.90625 C 128.703125 1.90625 128.070312 1.492188 127.53125 0.671875 C 126.988281 -0.140625 126.46875 -1.175781 125.96875 -2.4375 C 125.46875 -3.707031 124.988281 -5.113281 124.53125 -6.65625 C 124.082031 -8.195312 123.632812 -9.691406 123.1875 -11.140625 L 123.1875 -14.796875 C 123.1875 -18.785156 123.160156 -22.953125 123.109375 -27.296875 C 123.066406 -31.640625 122.882812 -35.867188 122.5625 -39.984375 C 122.25 -44.109375 121.753906 -48.023438 121.078125 -51.734375 C 120.398438 -55.453125 119.492188 -58.738281 118.359375 -61.59375 C 117.222656 -64.445312 115.769531 -66.6875 114 -68.3125 C 112.238281 -69.945312 110.09375 -70.765625 107.5625 -70.765625 C 105.476562 -70.765625 103.578125 -70.21875 101.859375 -69.125 C 100.859375 -68.488281 99.863281 -67.675781 98.875 -66.6875 C 99.863281 -67.59375 100.90625 -68.363281 102 -69 C 103.71875 -70.082031 105.570312 -70.625 107.5625 -70.625 L 108.109375 -70.625 C 110.367188 -70.625 112.289062 -69.738281 113.875 -67.96875 C 115.457031 -66.207031 116.769531 -63.878906 117.8125 -60.984375 C 118.851562 -58.085938 119.644531 -54.78125 120.1875 -51.0625 C 120.738281 -47.351562 121.171875 -43.503906 121.484375 -39.515625 C 121.796875 -35.535156 122 -31.578125 122.09375 -27.640625 C 122.1875 -23.703125 122.273438 -20.101562 122.359375 -16.84375 C 121.816406 -19.375 121.34375 -22.378906 120.9375 -25.859375 C 120.53125 -29.347656 120.125 -32.992188 119.71875 -36.796875 C 119.3125 -40.609375 118.8125 -44.367188 118.21875 -48.078125 C 117.632812 -51.785156 116.890625 -55.109375 115.984375 -58.046875 C 115.078125 -60.992188 113.941406 -63.375 112.578125 -65.1875 C 111.222656 -67 109.550781 -67.90625 107.5625 -67.90625 C 106.75 -67.90625 106.023438 -67.835938 105.390625 -67.703125 C 104.753906 -67.566406 103.941406 -67.09375 102.953125 -66.28125 L 101.59375 -66.953125 C 98.507812 -64.234375 95.925781 -60.609375 93.84375 -56.078125 C 91.757812 -51.554688 89.992188 -46.691406 88.546875 -41.484375 C 87.097656 -36.285156 85.875 -30.96875 84.875 -25.53125 C 83.882812 -20.101562 82.9375 -15.078125 82.03125 -10.453125 L 82.03125 -5.296875 C 83.476562 -12.453125 84.8125 -19.492188 86.03125 -26.421875 C 87.257812 -33.347656 89.050781 -40.066406 91.40625 -46.578125 C 89.59375 -40.960938 88.1875 -35.164062 87.1875 -29.1875 C 86.195312 -23.21875 85.066406 -17.109375 83.796875 -10.859375 C 83.796875 -10.234375 83.660156 -9.375 83.390625 -8.28125 C 83.117188 -7.195312 82.664062 -5.566406 82.03125 -3.390625 L 67.09375 -4.890625 Z M 67.640625 -13.3125 C 67.367188 -15.757812 67.117188 -18.882812 66.890625 -22.6875 C 66.660156 -26.488281 66.363281 -30.515625 66 -34.765625 C 65.644531 -39.023438 65.148438 -43.328125 64.515625 -47.671875 C 63.878906 -52.015625 62.992188 -55.925781 61.859375 -59.40625 C 60.734375 -62.894531 59.332031 -65.726562 57.65625 -67.90625 C 55.976562 -70.082031 53.875 -71.171875 51.34375 -71.171875 C 50.519531 -71.171875 49.65625 -70.988281 48.75 -70.625 C 47.851562 -70.257812 46.992188 -69.851562 46.171875 -69.40625 C 46.441406 -69.488281 46.671875 -69.53125 46.859375 -69.53125 L 46.984375 -69.53125 C 46.984375 -69.445312 46.847656 -69.269531 46.578125 -69 C 49.023438 -69.8125 50.925781 -70.21875 52.28125 -70.21875 C 54.007812 -69.582031 55.550781 -68.175781 56.90625 -66 C 58.257812 -63.832031 59.410156 -61.226562 60.359375 -58.1875 C 61.316406 -55.15625 62.132812 -51.875 62.8125 -48.34375 C 63.488281 -44.8125 64.007812 -41.4375 64.375 -38.21875 C 64.738281 -35.007812 65.007812 -32.132812 65.1875 -29.59375 C 65.375 -27.0625 65.46875 -25.253906 65.46875 -24.171875 C 65.738281 -21.453125 65.984375 -18.78125 66.203125 -16.15625 C 66.429688 -13.53125 66.546875 -10.90625 66.546875 -8.28125 Z M 79.046875 -49.84375 C 79.046875 -49.75 79.132812 -49.34375 79.3125 -48.625 C 79.5 -47.988281 79.632812 -47.582031 79.71875 -47.40625 C 79.988281 -48.300781 80.578125 -49.769531 81.484375 -51.8125 C 82.390625 -53.851562 83.382812 -56.023438 84.46875 -58.328125 C 85.5625 -60.640625 86.601562 -62.789062 87.59375 -64.78125 C 87.957031 -65.59375 88.273438 -66.316406 88.546875 -66.953125 C 88.273438 -66.410156 87.914062 -65.820312 87.46875 -65.1875 C 86.46875 -63.375 85.378906 -61.492188 84.203125 -59.546875 C 83.023438 -57.609375 81.9375 -55.734375 80.9375 -53.921875 C 79.945312 -52.109375 79.316406 -50.75 79.046875 -49.84375 Z M 89.765625 -51.46875 C 87.960938 -46.851562 86.378906 -41.988281 85.015625 -36.875 C 83.660156 -31.757812 82.441406 -26.484375 81.359375 -21.046875 L 81.625 -18.875 C 82.800781 -25.394531 84.160156 -31.960938 85.703125 -38.578125 C 87.148438 -44.367188 89.003906 -49.84375 91.265625 -55 C 91.171875 -54.726562 91.082031 -54.503906 91 -54.328125 C 90.539062 -53.421875 90.128906 -52.46875 89.765625 -51.46875 Z M 67.640625 -33 C 67.816406 -31.550781 67.925781 -30.144531 67.96875 -28.78125 C 68.019531 -27.425781 68.085938 -26.160156 68.171875 -24.984375 L 68.578125 -18.46875 L 68.71875 -19.15625 C 68.625 -20.414062 68.578125 -21.632812 68.578125 -22.8125 L 68.578125 -26.21875 Z M 112.1875 -79.59375 C 110.550781 -80.039062 109.007812 -80.265625 107.5625 -80.265625 L 106.0625 -80.265625 C 105.4375 -80.265625 105.125 -80.21875 105.125 -80.125 L 105.25 -80.125 C 106.695312 -79.769531 108.054688 -79.59375 109.328125 -79.59375 Z M 92.078125 -48.484375 C 92.535156 -49.753906 92.941406 -50.976562 93.296875 -52.15625 C 93.753906 -53.332031 94.117188 -54.144531 94.390625 -54.59375 C 94.390625 -54.414062 94.300781 -54.054688 94.125 -53.515625 C 93.9375 -52.878906 93.570312 -51.925781 93.03125 -50.65625 Z M 121.546875 -73.875 C 121.097656 -74.425781 120.507812 -74.972656 119.78125 -75.515625 C 119.238281 -75.878906 118.742188 -76.195312 118.296875 -76.46875 C 119.378906 -75.738281 120.460938 -74.875 121.546875 -73.875 Z M 89.234375 -68.171875 C 89.046875 -67.992188 88.910156 -67.722656 88.828125 -67.359375 C 89.003906 -67.628906 89.140625 -67.898438 89.234375 -68.171875 Z M 89.234375 -68.171875 "/></g></g></g><g fill="#24429b" fill-opacity="1"><g transform="translate(139.764413, 434.6221)"><g><path d="M 57.3125 -67.90625 C 56.5 -67.90625 55.390625 -67.769531 53.984375 -67.5 C 52.578125 -67.226562 51.171875 -66.910156 49.765625 -66.546875 C 48.367188 -66.179688 47.101562 -65.816406 45.96875 -65.453125 C 44.84375 -65.097656 44.144531 -64.828125 43.875 -64.640625 C 46.226562 -65.003906 48.398438 -65.4375 50.390625 -65.9375 C 52.378906 -66.4375 54.550781 -66.6875 56.90625 -66.6875 C 56.445312 -65.875 55.851562 -65.238281 55.125 -64.78125 C 54.40625 -64.332031 53.613281 -63.992188 52.75 -63.765625 C 51.894531 -63.535156 50.96875 -63.351562 49.96875 -63.21875 C 48.976562 -63.082031 47.941406 -62.878906 46.859375 -62.609375 L 45.90625 -63.828125 C 44.1875 -63.191406 42.875 -62.804688 41.96875 -62.671875 C 41.0625 -62.535156 40.109375 -62.46875 39.109375 -62.46875 C 38.023438 -62.46875 36.914062 -62.488281 35.78125 -62.53125 C 34.65625 -62.582031 33.410156 -62.609375 32.046875 -62.609375 C 32.046875 -62.160156 32.003906 -61.796875 31.921875 -61.515625 C 34.003906 -61.515625 35.769531 -61.535156 37.21875 -61.578125 C 38.664062 -61.628906 40.429688 -61.789062 42.515625 -62.0625 C 40.515625 -61.695312 38.769531 -61.425781 37.28125 -61.25 C 35.789062 -61.070312 34.003906 -60.984375 31.921875 -60.984375 C 31.554688 -58.898438 31.238281 -56.859375 30.96875 -54.859375 C 30.695312 -52.867188 30.5625 -50.925781 30.5625 -49.03125 C 30.5625 -47.945312 30.601562 -46.675781 30.6875 -45.21875 C 30.78125 -43.769531 30.894531 -42.300781 31.03125 -40.8125 C 31.164062 -39.320312 31.28125 -37.914062 31.375 -36.59375 C 31.46875 -35.28125 31.515625 -34.3125 31.515625 -33.6875 L 31.515625 -25.53125 C 31.960938 -23.71875 33.269531 -22.359375 35.4375 -21.453125 C 37.613281 -20.546875 40.738281 -20.09375 44.8125 -20.09375 L 49.171875 -20.09375 C 50.703125 -20.09375 51.757812 -19.9375 52.34375 -19.625 C 52.9375 -19.3125 53.234375 -18.878906 53.234375 -18.328125 C 53.234375 -17.878906 52.867188 -17.628906 52.140625 -17.578125 C 51.421875 -17.535156 50.703125 -17.515625 49.984375 -17.515625 C 47.359375 -17.515625 44.59375 -17.695312 41.6875 -18.0625 C 38.976562 -18.425781 36.3125 -18.832031 33.6875 -19.28125 C 36.3125 -18.644531 39.070312 -18.054688 41.96875 -17.515625 C 44.957031 -17.066406 47.851562 -16.84375 50.65625 -16.84375 L 51.875 -16.84375 C 52.238281 -16.84375 52.648438 -16.890625 53.109375 -16.984375 C 53.109375 -16.523438 53.128906 -16.113281 53.171875 -15.75 C 53.210938 -15.394531 53.328125 -14.988281 53.515625 -14.53125 L 54.59375 -14.796875 C 54.863281 -14.890625 55.179688 -14.957031 55.546875 -15 C 55.910156 -15.050781 56.179688 -15.164062 56.359375 -15.34375 C 59.253906 -15.070312 60.703125 -14.078125 60.703125 -12.359375 C 60.703125 -11.359375 60.429688 -10.539062 59.890625 -9.90625 C 59.347656 -9.28125 58.671875 -8.785156 57.859375 -8.421875 C 57.046875 -8.054688 56.140625 -7.804688 55.140625 -7.671875 C 54.140625 -7.535156 53.1875 -7.46875 52.28125 -7.46875 C 49.113281 -7.46875 46.015625 -7.671875 42.984375 -8.078125 C 39.953125 -8.484375 36.988281 -8.914062 34.09375 -9.375 C 36.625 -8.46875 39.835938 -7.742188 43.734375 -7.203125 C 47.628906 -6.660156 51.566406 -6.390625 55.546875 -6.390625 C 54.546875 -5.753906 53.367188 -5.253906 52.015625 -4.890625 C 50.660156 -4.523438 49.257812 -4.34375 47.8125 -4.34375 L 38.03125 -5.5625 C 36.757812 -5.75 35.785156 -5.929688 35.109375 -6.109375 C 34.429688 -6.296875 33.773438 -6.5 33.140625 -6.71875 C 32.503906 -6.945312 31.800781 -7.195312 31.03125 -7.46875 C 30.257812 -7.738281 29.195312 -8.054688 27.84375 -8.421875 L 27.84375 -9.921875 C 25.488281 -10.546875 23.585938 -11.628906 22.140625 -13.171875 C 20.691406 -14.710938 19.554688 -16.390625 18.734375 -18.203125 C 17.921875 -20.015625 17.378906 -21.847656 17.109375 -23.703125 C 16.835938 -25.554688 16.703125 -27.207031 16.703125 -28.65625 C 16.703125 -30.195312 16.722656 -31.625 16.765625 -32.9375 C 16.816406 -34.25 16.84375 -35.582031 16.84375 -36.9375 C 16.84375 -37.9375 16.816406 -39.203125 16.765625 -40.734375 C 16.722656 -42.273438 16.65625 -43.90625 16.5625 -45.625 C 16.476562 -47.351562 16.410156 -49.117188 16.359375 -50.921875 C 16.316406 -52.734375 16.296875 -54.457031 16.296875 -56.09375 C 16.296875 -57.082031 16.316406 -58.03125 16.359375 -58.9375 C 16.410156 -59.84375 16.476562 -60.660156 16.5625 -61.390625 L 15.21875 -61.390625 C 15.125 -60.753906 15.078125 -60.03125 15.078125 -59.21875 L 15.078125 -56.765625 C 15.078125 -54.140625 15.117188 -51.535156 15.203125 -48.953125 C 15.296875 -46.378906 15.363281 -44.003906 15.40625 -41.828125 C 15.457031 -39.660156 15.523438 -37.78125 15.609375 -36.1875 C 15.703125 -34.601562 15.75 -33.453125 15.75 -32.734375 L 15.75 -26.21875 C 15.476562 -28.65625 15.207031 -32.140625 14.9375 -36.671875 C 14.664062 -41.921875 14.53125 -47.710938 14.53125 -54.046875 L 14.53125 -56.5 C 14.53125 -57.488281 14.550781 -58.4375 14.59375 -59.34375 C 14.644531 -60.25 14.757812 -60.929688 14.9375 -61.390625 L 10.328125 -61.65625 C 9.328125 -62.289062 8.328125 -62.789062 7.328125 -63.15625 C 6.335938 -63.519531 5.4375 -63.703125 4.625 -63.703125 L 4.625 -66.40625 C 4.625 -66.957031 4.691406 -67.4375 4.828125 -67.84375 C 4.960938 -68.25 5.390625 -68.453125 6.109375 -68.453125 C 6.296875 -68.453125 6.75 -68.359375 7.46875 -68.171875 L 7.46875 -69.8125 C 6.46875 -70.351562 5.648438 -71.097656 5.015625 -72.046875 C 4.390625 -72.992188 4.078125 -73.96875 4.078125 -74.96875 C 4.078125 -77.320312 5.75 -78.5 9.09375 -78.5 C 10.363281 -78.5 11.675781 -78.40625 13.03125 -78.21875 C 14.394531 -78.039062 15.800781 -77.910156 17.25 -77.828125 C 17.613281 -79.816406 17.929688 -81.601562 18.203125 -83.1875 C 18.472656 -84.769531 18.742188 -86.304688 19.015625 -87.796875 C 19.285156 -89.296875 19.597656 -90.789062 19.953125 -92.28125 C 20.316406 -93.78125 20.773438 -95.34375 21.328125 -96.96875 C 22.140625 -98.78125 22.769531 -100.75 23.21875 -102.875 C 23.675781 -105 23.992188 -107.101562 24.171875 -109.1875 L 27.03125 -109.0625 C 27.476562 -109.0625 27.859375 -108.925781 28.171875 -108.65625 C 28.492188 -108.382812 28.65625 -107.75 28.65625 -106.75 C 28.65625 -105.9375 28.519531 -104.847656 28.25 -103.484375 L 29.875 -103.078125 C 30.601562 -105.523438 31.488281 -107.515625 32.53125 -109.046875 C 33.570312 -110.585938 34.585938 -111.359375 35.578125 -111.359375 C 37.117188 -111.359375 38.070312 -109.414062 38.4375 -105.53125 L 38.4375 -103.078125 C 38.4375 -100.722656 38.273438 -98.523438 37.953125 -96.484375 C 37.640625 -94.453125 37.253906 -92.441406 36.796875 -90.453125 C 36.347656 -88.460938 35.894531 -86.425781 35.4375 -84.34375 C 34.988281 -82.257812 34.582031 -79.992188 34.21875 -77.546875 C 36.21875 -77.273438 38.164062 -77.140625 40.0625 -77.140625 C 40.96875 -77.140625 41.875 -77.160156 42.78125 -77.203125 C 43.6875 -77.253906 44.59375 -77.28125 45.5 -77.28125 C 46.40625 -77.28125 47.351562 -77.640625 48.34375 -78.359375 C 49.34375 -79.085938 50.25 -79.453125 51.0625 -79.453125 C 51.789062 -79.453125 52.332031 -79.222656 52.6875 -78.765625 C 53.050781 -78.316406 53.234375 -77.820312 53.234375 -77.28125 C 51.609375 -76.820312 50.003906 -76.34375 48.421875 -75.84375 C 46.835938 -75.351562 45.320312 -74.878906 43.875 -74.421875 C 45.320312 -74.609375 46.859375 -74.945312 48.484375 -75.4375 C 50.117188 -75.9375 51.835938 -76.414062 53.640625 -76.875 C 53.640625 -76.414062 53.660156 -76.003906 53.703125 -75.640625 C 53.753906 -75.285156 53.867188 -74.878906 54.046875 -74.421875 C 54.234375 -74.421875 54.460938 -74.46875 54.734375 -74.5625 C 55.273438 -74.738281 55.59375 -74.828125 55.6875 -74.828125 C 56.59375 -74.378906 57.179688 -73.8125 57.453125 -73.125 C 57.722656 -72.445312 57.859375 -71.703125 57.859375 -70.890625 C 57.859375 -70.253906 57.765625 -69.6875 57.578125 -69.1875 C 57.398438 -68.695312 57.3125 -68.269531 57.3125 -67.90625 Z M 21.328125 -17.796875 C 20.054688 -20.234375 19.375 -22.628906 19.28125 -24.984375 C 19.195312 -27.335938 19.0625 -29.554688 18.875 -31.640625 L 17.65625 -52.28125 L 17.25 -49.84375 C 17.25 -43.78125 17.453125 -38.28125 17.859375 -33.34375 C 18.265625 -28.40625 18.875 -24.578125 19.6875 -21.859375 C 19.6875 -21.046875 19.664062 -20.503906 19.625 -20.234375 C 19.582031 -19.960938 19.5625 -19.738281 19.5625 -19.5625 C 19.5625 -19.375 19.671875 -19.144531 19.890625 -18.875 C 20.117188 -18.601562 20.597656 -18.242188 21.328125 -17.796875 Z M 29.0625 -25.125 C 28.882812 -25.851562 28.796875 -26.625 28.796875 -27.4375 L 28.796875 -34.09375 C 28.703125 -33.1875 28.609375 -32.300781 28.515625 -31.4375 C 28.429688 -30.582031 28.390625 -29.703125 28.390625 -28.796875 C 28.390625 -26.441406 28.523438 -24.628906 28.796875 -23.359375 C 29.066406 -22.273438 29.609375 -21.367188 30.421875 -20.640625 C 29.972656 -21.179688 29.65625 -21.769531 29.46875 -22.40625 C 29.375 -23.132812 29.238281 -24.039062 29.0625 -25.125 Z M 15.890625 -25.265625 L 15.75 -26.21875 Z M 30.6875 -20.5 C 30.601562 -20.59375 30.515625 -20.640625 30.421875 -20.640625 C 30.515625 -20.640625 30.601562 -20.59375 30.6875 -20.5 Z M 30.6875 -20.5 "/></g></g></g><g fill="#ff3131" fill-opacity="1"><g transform="translate(201.845015, 434.6221)"><g><path d="M 4.078125 -0.671875 C 6.242188 0.410156 8.457031 1.492188 10.71875 2.578125 C 12.988281 3.660156 15.390625 4.203125 17.921875 4.203125 C 20.546875 4.203125 22.851562 3.429688 24.84375 1.890625 C 26.84375 0.359375 28.566406 -1.601562 30.015625 -4 C 31.460938 -6.40625 32.660156 -9.144531 33.609375 -12.21875 C 34.566406 -15.300781 35.359375 -18.359375 35.984375 -21.390625 C 36.617188 -24.421875 37.070312 -27.296875 37.34375 -30.015625 C 37.4375 -31.015625 37.53125 -31.921875 37.625 -32.734375 C 37.53125 -32.003906 37.4375 -31.234375 37.34375 -30.421875 C 36.988281 -27.796875 36.492188 -24.96875 35.859375 -21.9375 C 35.222656 -18.90625 34.453125 -15.867188 33.546875 -12.828125 C 32.640625 -9.796875 31.503906 -7.054688 30.140625 -4.609375 C 28.785156 -2.171875 27.203125 -0.179688 25.390625 1.359375 C 23.585938 2.898438 21.460938 3.671875 19.015625 3.671875 C 16.753906 3.671875 14.554688 3.238281 12.421875 2.375 C 10.296875 1.519531 8.328125 0.503906 6.515625 -0.671875 C 8.597656 -0.671875 10.585938 -0.398438 12.484375 0.140625 C 14.390625 0.679688 16.382812 0.953125 18.46875 0.953125 C 20.28125 0.953125 21.707031 0.59375 22.75 -0.125 C 23.789062 -0.851562 24.804688 -1.898438 25.796875 -3.265625 L 27.703125 -3.125 C 29.691406 -6.925781 31.320312 -11.132812 32.59375 -15.75 C 33.863281 -20.375 34.859375 -25.128906 35.578125 -30.015625 C 36.304688 -34.898438 36.804688 -39.765625 37.078125 -44.609375 C 37.347656 -49.453125 37.484375 -54.003906 37.484375 -58.265625 L 37.484375 -62.46875 C 37.484375 -63.914062 37.4375 -65.363281 37.34375 -66.8125 L 36.9375 -66.28125 C 36.757812 -61.75 36.578125 -56.742188 36.390625 -51.265625 C 36.210938 -45.785156 35.828125 -40.285156 35.234375 -34.765625 C 34.648438 -29.242188 33.742188 -23.898438 32.515625 -18.734375 C 31.296875 -13.578125 29.554688 -9.007812 27.296875 -5.03125 C 30.015625 -10.09375 31.960938 -15.90625 33.140625 -22.46875 C 34.316406 -29.039062 35.109375 -35.8125 35.515625 -42.78125 C 35.921875 -49.75 36.164062 -56.695312 36.25 -63.625 C 36.34375 -70.550781 36.664062 -76.910156 37.21875 -82.703125 C 32.144531 -83.253906 26.957031 -83.84375 21.65625 -84.46875 C 16.363281 -85.101562 11.179688 -85.421875 6.109375 -85.421875 C 6.109375 -86.328125 6.082031 -87.003906 6.03125 -87.453125 C 5.988281 -87.910156 5.96875 -88.367188 5.96875 -88.828125 C 5.96875 -89.640625 6.601562 -90.132812 7.875 -90.3125 C 9.144531 -90.5 10.050781 -90.59375 10.59375 -90.59375 L 10.859375 -90.59375 L 13.984375 -90.453125 L 13.984375 -92.078125 C 13.441406 -92.171875 12.515625 -92.328125 11.203125 -92.546875 C 9.890625 -92.773438 8.53125 -93.113281 7.125 -93.5625 C 5.726562 -94.019531 4.507812 -94.566406 3.46875 -95.203125 C 2.425781 -95.835938 1.90625 -96.5625 1.90625 -97.375 C 1.90625 -98.1875 2.738281 -98.816406 4.40625 -99.265625 C 6.082031 -99.722656 7.960938 -100.085938 10.046875 -100.359375 C 12.128906 -100.628906 14.117188 -100.785156 16.015625 -100.828125 C 17.921875 -100.878906 19.144531 -100.90625 19.6875 -100.90625 C 24.582031 -100.90625 29.289062 -100.65625 33.8125 -100.15625 C 38.34375 -99.664062 43.097656 -98.921875 48.078125 -97.921875 L 54.734375 -88.40625 C 54.097656 -85.15625 53.644531 -81.148438 53.375 -76.390625 C 53.101562 -71.640625 52.875 -66.5 52.6875 -60.96875 C 52.507812 -55.445312 52.257812 -49.695312 51.9375 -43.71875 C 51.625 -37.75 51.035156 -31.910156 50.171875 -26.203125 C 49.316406 -20.503906 48.097656 -15.070312 46.515625 -9.90625 C 44.929688 -4.75 42.828125 -0.226562 40.203125 3.65625 C 37.578125 7.550781 34.296875 10.65625 30.359375 12.96875 C 26.421875 15.28125 21.6875 16.4375 16.15625 16.4375 C 13.800781 16.4375 11.289062 16.003906 8.625 15.140625 C 5.957031 14.285156 3.757812 12.992188 2.03125 11.265625 L 2.4375 10.1875 C 4.789062 11.363281 7.191406 12.289062 9.640625 12.96875 C 12.085938 13.644531 14.625 13.984375 17.25 13.984375 C 20.320312 13.984375 23.351562 13.351562 26.34375 12.09375 C 23.539062 13.082031 20.691406 13.578125 17.796875 13.578125 C 15.171875 13.578125 12.679688 13.210938 10.328125 12.484375 C 7.972656 11.765625 5.617188 10.863281 3.265625 9.78125 L 4.203125 8.15625 C 3.753906 7.875 3.125 7.484375 2.3125 6.984375 C 1.5 6.492188 0.726562 5.953125 0 5.359375 C -0.726562 4.773438 -1.363281 4.140625 -1.90625 3.453125 C -2.445312 2.773438 -2.71875 2.164062 -2.71875 1.625 C -2.71875 0.71875 -2.171875 0.109375 -1.078125 -0.203125 C 0.00390625 -0.515625 0.863281 -0.671875 1.5 -0.671875 Z M 4.078125 -0.671875 "/></g></g></g><g fill="#24429b" fill-opacity="1"><g transform="translate(262.009082, 434.6221)"><g><path d="M 54.453125 -35.578125 C 52.015625 -35.578125 50.179688 -35.625 48.953125 -35.71875 C 47.734375 -35.8125 46.628906 -35.859375 45.640625 -35.859375 C 42.921875 -35.859375 40.519531 -35.722656 38.4375 -35.453125 C 36.351562 -35.179688 34.585938 -34.632812 33.140625 -33.8125 C 31.691406 -33 30.601562 -31.820312 29.875 -30.28125 C 29.15625 -28.75 28.796875 -26.710938 28.796875 -24.171875 C 28.796875 -20.460938 29.222656 -17.722656 30.078125 -15.953125 C 30.941406 -14.191406 32.164062 -12.925781 33.75 -12.15625 C 35.332031 -11.382812 37.253906 -10.90625 39.515625 -10.71875 C 41.785156 -10.539062 44.320312 -10.132812 47.125 -9.5 C 48.757812 -9.320312 50.390625 -9.207031 52.015625 -9.15625 C 53.640625 -9.113281 55.269531 -9.09375 56.90625 -9.09375 L 66.6875 -9.09375 C 62.15625 -9.363281 57.648438 -9.519531 53.171875 -9.5625 C 48.691406 -9.613281 44.660156 -10 41.078125 -10.71875 C 37.503906 -11.445312 34.609375 -12.71875 32.390625 -14.53125 C 30.171875 -16.34375 29.0625 -19.101562 29.0625 -22.8125 C 29.0625 -25.800781 29.445312 -28.085938 30.21875 -29.671875 C 30.988281 -31.253906 32.03125 -32.429688 33.34375 -33.203125 C 34.65625 -33.972656 36.21875 -34.425781 38.03125 -34.5625 C 39.84375 -34.695312 41.789062 -34.765625 43.875 -34.765625 C 46.40625 -34.765625 48.984375 -34.628906 51.609375 -34.359375 C 49.523438 -33.722656 47.421875 -33.242188 45.296875 -32.921875 C 43.171875 -32.609375 41.203125 -32.296875 39.390625 -31.984375 C 37.578125 -31.671875 36.015625 -31.265625 34.703125 -30.765625 C 33.390625 -30.265625 32.503906 -29.5625 32.046875 -28.65625 L 32.046875 -22.546875 L 30.96875 -22 C 31.332031 -19.738281 31.671875 -18.039062 31.984375 -16.90625 C 32.296875 -15.78125 33.175781 -14.921875 34.625 -14.328125 C 36.082031 -13.742188 38.414062 -13.269531 41.625 -12.90625 C 44.84375 -12.539062 49.53125 -11.953125 55.6875 -11.140625 L 65.46875 -11.140625 C 67.1875 -11.140625 68.203125 -11.207031 68.515625 -11.34375 C 68.835938 -11.476562 69.039062 -11.546875 69.125 -11.546875 L 67.90625 -18.875 C 67.726562 -20.6875 67.5 -22.316406 67.21875 -23.765625 C 66.945312 -25.210938 66.585938 -26.753906 66.140625 -28.390625 C 66.046875 -28.117188 65.773438 -27.984375 65.328125 -27.984375 C 65.773438 -26.441406 66.15625 -24.804688 66.46875 -23.078125 C 66.789062 -21.359375 67.066406 -19.726562 67.296875 -18.1875 C 67.523438 -16.65625 67.707031 -15.34375 67.84375 -14.25 C 67.976562 -13.164062 68.132812 -12.535156 68.3125 -12.359375 L 67.5 -12.09375 C 67.320312 -12 67.050781 -11.953125 66.6875 -11.953125 L 65.875 -11.953125 C 65.238281 -11.953125 64.507812 -12.019531 63.6875 -12.15625 C 62.875 -12.289062 61.835938 -12.359375 60.578125 -12.359375 L 56.09375 -12.359375 C 52.5625 -12.359375 49.300781 -12.539062 46.3125 -12.90625 C 43.507812 -13.269531 41.066406 -13.722656 38.984375 -14.265625 C 41.066406 -13.804688 43.597656 -13.441406 46.578125 -13.171875 C 49.753906 -12.804688 52.695312 -12.625 55.40625 -12.625 C 56.582031 -12.625 57.828125 -12.644531 59.140625 -12.6875 C 60.453125 -12.738281 61.878906 -12.765625 63.421875 -12.765625 L 67.90625 -12.765625 C 67.632812 -13.035156 67.316406 -13.171875 66.953125 -13.171875 L 66.6875 -13.171875 C 66.320312 -19.421875 65.503906 -25.394531 64.234375 -31.09375 C 62.972656 -36.800781 60.9375 -41.804688 58.125 -46.109375 C 55.320312 -50.410156 51.65625 -53.847656 47.125 -56.421875 C 42.601562 -59.003906 36.945312 -60.296875 30.15625 -60.296875 C 28.25 -60.296875 26.34375 -60.160156 24.4375 -59.890625 C 22.539062 -59.617188 20.597656 -59.257812 18.609375 -58.8125 C 18.785156 -58.988281 18.875 -59.164062 18.875 -59.34375 C 18.875 -59.800781 18.691406 -60.234375 18.328125 -60.640625 C 17.972656 -61.046875 17.796875 -61.476562 17.796875 -61.9375 C 17.796875 -62.476562 18.359375 -62.992188 19.484375 -63.484375 C 20.617188 -63.984375 23.039062 -64.460938 26.75 -64.921875 C 26.570312 -65.097656 26.457031 -65.367188 26.40625 -65.734375 C 26.363281 -66.097656 26.34375 -66.367188 26.34375 -66.546875 C 21.457031 -66.546875 17.65625 -66.660156 14.9375 -66.890625 C 12.21875 -67.117188 10.859375 -67.773438 10.859375 -68.859375 C 10.859375 -69.304688 11.425781 -69.9375 12.5625 -70.75 C 13.695312 -71.570312 15.300781 -72.367188 17.375 -73.140625 C 19.457031 -73.910156 21.96875 -74.585938 24.90625 -75.171875 C 27.851562 -75.765625 31.140625 -76.0625 34.765625 -76.0625 C 41.734375 -76.0625 47.707031 -74.992188 52.6875 -72.859375 C 57.675781 -70.734375 61.863281 -67.925781 65.25 -64.4375 C 68.644531 -60.957031 71.40625 -57 73.53125 -52.5625 C 75.664062 -48.125 77.390625 -43.660156 78.703125 -39.171875 C 80.015625 -34.691406 80.988281 -30.347656 81.625 -26.140625 C 82.257812 -21.929688 82.847656 -18.289062 83.390625 -15.21875 C 83.390625 -14.664062 83.410156 -14.117188 83.453125 -13.578125 C 83.503906 -13.035156 83.53125 -12.40625 83.53125 -11.6875 C 83.53125 -9.050781 83.050781 -6.757812 82.09375 -4.8125 C 81.144531 -2.875 79.832031 -1.25 78.15625 0.0625 C 76.476562 1.375 74.53125 2.367188 72.3125 3.046875 C 70.101562 3.734375 67.726562 4.078125 65.1875 4.078125 C 63.195312 4.078125 60.613281 4.03125 57.4375 3.9375 C 54.269531 3.84375 51.238281 3.570312 48.34375 3.125 C 46.445312 2.664062 44.363281 2.320312 42.09375 2.09375 C 39.832031 1.875 37.523438 1.492188 35.171875 0.953125 C 32.816406 0.410156 30.53125 -0.359375 28.3125 -1.359375 C 26.09375 -2.359375 24.097656 -3.875 22.328125 -5.90625 C 20.566406 -7.945312 19.164062 -10.59375 18.125 -13.84375 C 17.082031 -17.101562 16.5625 -21.226562 16.5625 -26.21875 C 16.5625 -30.925781 17.648438 -34.703125 19.828125 -37.546875 C 22.003906 -40.398438 24.609375 -42.617188 27.640625 -44.203125 C 30.671875 -45.785156 33.769531 -46.828125 36.9375 -47.328125 C 40.101562 -47.828125 42.6875 -48.078125 44.6875 -48.078125 C 47.21875 -48.078125 48.890625 -47.894531 49.703125 -47.53125 C 50.523438 -47.164062 50.9375 -46.804688 50.9375 -46.453125 C 50.9375 -46.179688 50.890625 -45.953125 50.796875 -45.765625 C 48.535156 -45.765625 45.640625 -45.671875 42.109375 -45.484375 C 38.578125 -45.304688 35.15625 -44.71875 31.84375 -43.71875 C 28.539062 -42.726562 25.710938 -41.210938 23.359375 -39.171875 C 21.003906 -37.140625 19.828125 -34.269531 19.828125 -30.5625 C 20.640625 -33.90625 22.019531 -36.550781 23.96875 -38.5 C 25.914062 -40.445312 28.15625 -41.894531 30.6875 -42.84375 C 33.226562 -43.800781 35.832031 -44.390625 38.5 -44.609375 C 41.175781 -44.835938 43.597656 -44.953125 45.765625 -44.953125 L 50.390625 -44.953125 C 50.023438 -44.585938 49.84375 -44.226562 49.84375 -43.875 C 49.84375 -43.507812 50.023438 -43.191406 50.390625 -42.921875 L 55.6875 -42.921875 C 57.132812 -42.648438 58.171875 -42.171875 58.796875 -41.484375 C 59.429688 -40.804688 59.75 -40.195312 59.75 -39.65625 C 59.75 -38.84375 59.34375 -38.117188 58.53125 -37.484375 C 57.71875 -36.847656 56.359375 -36.210938 54.453125 -35.578125 Z M 31.640625 -2.71875 C 34.179688 -1.71875 36.785156 -0.945312 39.453125 -0.40625 C 42.117188 0.132812 44.769531 0.492188 47.40625 0.671875 C 50.03125 0.953125 52.472656 1.09375 54.734375 1.09375 C 52.921875 0.90625 51.109375 0.585938 49.296875 0.140625 C 47.398438 -0.316406 45.726562 -0.726562 44.28125 -1.09375 C 42.738281 -1.445312 41.21875 -1.691406 39.71875 -1.828125 C 38.226562 -1.960938 36.691406 -2.164062 35.109375 -2.4375 C 33.523438 -2.71875 31.914062 -3.148438 30.28125 -3.734375 C 28.65625 -4.328125 27.023438 -5.210938 25.390625 -6.390625 C 27.117188 -4.847656 29.203125 -3.625 31.640625 -2.71875 Z M 33 -16.984375 C 32.90625 -17.066406 33.175781 -16.789062 33.8125 -16.15625 C 34.351562 -15.613281 35.078125 -15.207031 35.984375 -14.9375 C 35.535156 -15.125 34.859375 -15.351562 33.953125 -15.625 C 32.953125 -15.976562 32.453125 -16.519531 32.453125 -17.25 Z M 36.390625 -14.9375 C 36.304688 -14.9375 36.171875 -14.9375 35.984375 -14.9375 C 36.078125 -14.9375 36.210938 -14.9375 36.390625 -14.9375 Z M 36.390625 -14.9375 "/></g></g></g><g fill="#24429b" fill-opacity="1"><g transform="translate(351.634862, 434.6221)"><g><path d="M 66.140625 -6.515625 C 66.140625 -9.503906 65.9375 -12.535156 65.53125 -15.609375 C 65.125 -18.691406 64.921875 -21.679688 64.921875 -24.578125 L 64.921875 -28.25 C 64.460938 -31.78125 63.914062 -35.921875 63.28125 -40.671875 C 62.65625 -45.429688 61.84375 -49.9375 60.84375 -54.1875 C 59.84375 -58.445312 58.617188 -62.066406 57.171875 -65.046875 C 55.722656 -68.035156 53.914062 -69.53125 51.75 -69.53125 C 48.570312 -69.53125 45.304688 -68.054688 41.953125 -65.109375 C 38.609375 -62.171875 35.804688 -57.894531 33.546875 -52.28125 C 32.460938 -49.113281 31.710938 -45.765625 31.296875 -42.234375 C 30.890625 -38.703125 30.550781 -34.988281 30.28125 -31.09375 C 30.007812 -27.207031 29.757812 -23.203125 29.53125 -19.078125 C 29.3125 -14.960938 28.882812 -10.6875 28.25 -6.25 C 28.070312 -5.789062 27.910156 -5.242188 27.765625 -4.609375 C 27.628906 -3.984375 27.519531 -3.441406 27.4375 -2.984375 L 10.734375 -2.984375 L 10.734375 -13.984375 C 10.640625 -14.890625 10.546875 -15.976562 10.453125 -17.25 C 10.367188 -18.519531 10.257812 -19.8125 10.125 -21.125 C 9.988281 -22.4375 9.875 -23.722656 9.78125 -24.984375 C 9.6875 -26.253906 9.59375 -27.34375 9.5 -28.25 C 9.5 -35.582031 9.203125 -42.914062 8.609375 -50.25 C 8.023438 -57.582031 7.644531 -65.050781 7.46875 -72.65625 L 10.59375 -73.34375 C 10.863281 -73.34375 11.15625 -73.09375 11.46875 -72.59375 C 11.789062 -72.09375 12.0625 -71.160156 12.28125 -69.796875 C 12.507812 -68.441406 12.738281 -66.519531 12.96875 -64.03125 C 13.195312 -61.539062 13.398438 -58.304688 13.578125 -54.328125 C 13.671875 -54.328125 13.804688 -54.367188 13.984375 -54.453125 C 14.347656 -54.640625 14.617188 -54.734375 14.796875 -54.734375 C 14.796875 -55.367188 14.773438 -56 14.734375 -56.625 C 14.691406 -57.257812 14.671875 -57.894531 14.671875 -58.53125 C 14.671875 -66.320312 15.191406 -72.320312 16.234375 -76.53125 C 17.273438 -80.738281 18.15625 -82.84375 18.875 -82.84375 C 19.414062 -82.84375 19.957031 -81.664062 20.5 -79.3125 C 21.050781 -76.957031 21.640625 -73.242188 22.265625 -68.171875 C 23.804688 -70.617188 25.570312 -72.972656 27.5625 -75.234375 C 29.5625 -77.503906 31.804688 -79.472656 34.296875 -81.140625 C 36.785156 -82.816406 39.476562 -84.148438 42.375 -85.140625 C 45.269531 -86.140625 48.4375 -86.640625 51.875 -86.640625 C 54.863281 -86.640625 57.488281 -86.003906 59.75 -84.734375 C 62.019531 -83.472656 64.035156 -81.820312 65.796875 -79.78125 C 67.566406 -77.75 69.0625 -75.441406 70.28125 -72.859375 C 71.5 -70.285156 72.5625 -67.707031 73.46875 -65.125 C 74.375 -62.539062 75.117188 -60.046875 75.703125 -57.640625 C 76.296875 -55.242188 76.820312 -53.234375 77.28125 -51.609375 C 77.28125 -51.429688 77.320312 -51.226562 77.40625 -51 C 77.5 -50.769531 77.59375 -50.566406 77.6875 -50.390625 C 78.769531 -53.285156 80.125 -56.609375 81.75 -60.359375 C 83.382812 -64.117188 85.421875 -67.675781 87.859375 -71.03125 C 90.304688 -74.382812 93.179688 -77.210938 96.484375 -79.515625 C 99.796875 -81.828125 103.625 -82.984375 107.96875 -82.984375 C 112.226562 -82.984375 115.847656 -81.847656 118.828125 -79.578125 C 121.816406 -77.316406 124.328125 -74.421875 126.359375 -70.890625 C 128.398438 -67.359375 130.03125 -63.441406 131.25 -59.140625 C 132.476562 -54.835938 133.410156 -50.628906 134.046875 -46.515625 C 134.679688 -42.398438 135.085938 -38.617188 135.265625 -35.171875 C 135.453125 -31.734375 135.546875 -29.109375 135.546875 -27.296875 C 135.546875 -24.398438 135.429688 -22.269531 135.203125 -20.90625 C 134.972656 -19.550781 134.363281 -18.875 133.375 -18.875 C 133.1875 -22.5 133.023438 -26.164062 132.890625 -29.875 C 132.753906 -33.59375 132.484375 -37.328125 132.078125 -41.078125 C 131.671875 -44.835938 131.101562 -48.53125 130.375 -52.15625 C 129.65625 -55.6875 128.707031 -59.171875 127.53125 -62.609375 C 129.789062 -55.453125 131.101562 -48.300781 131.46875 -41.15625 C 131.914062 -33.90625 132.273438 -26.75 132.546875 -19.6875 C 131.921875 -20.320312 131.425781 -20.640625 131.0625 -20.640625 C 130.789062 -20.640625 130.609375 -20.457031 130.515625 -20.09375 L 130.515625 -16.03125 C 130.515625 -14.851562 130.535156 -13.628906 130.578125 -12.359375 C 130.628906 -11.085938 130.742188 -10 130.921875 -9.09375 C 130.742188 -5.382812 130.585938 -2.738281 130.453125 -1.15625 C 130.316406 0.425781 129.972656 1.445312 129.421875 1.90625 C 128.703125 1.90625 128.070312 1.492188 127.53125 0.671875 C 126.988281 -0.140625 126.46875 -1.175781 125.96875 -2.4375 C 125.46875 -3.707031 124.988281 -5.113281 124.53125 -6.65625 C 124.082031 -8.195312 123.632812 -9.691406 123.1875 -11.140625 L 123.1875 -14.796875 C 123.1875 -18.785156 123.160156 -22.953125 123.109375 -27.296875 C 123.066406 -31.640625 122.882812 -35.867188 122.5625 -39.984375 C 122.25 -44.109375 121.753906 -48.023438 121.078125 -51.734375 C 120.398438 -55.453125 119.492188 -58.738281 118.359375 -61.59375 C 117.222656 -64.445312 115.769531 -66.6875 114 -68.3125 C 112.238281 -69.945312 110.09375 -70.765625 107.5625 -70.765625 C 105.476562 -70.765625 103.578125 -70.21875 101.859375 -69.125 C 100.859375 -68.488281 99.863281 -67.675781 98.875 -66.6875 C 99.863281 -67.59375 100.90625 -68.363281 102 -69 C 103.71875 -70.082031 105.570312 -70.625 107.5625 -70.625 L 108.109375 -70.625 C 110.367188 -70.625 112.289062 -69.738281 113.875 -67.96875 C 115.457031 -66.207031 116.769531 -63.878906 117.8125 -60.984375 C 118.851562 -58.085938 119.644531 -54.78125 120.1875 -51.0625 C 120.738281 -47.351562 121.171875 -43.503906 121.484375 -39.515625 C 121.796875 -35.535156 122 -31.578125 122.09375 -27.640625 C 122.1875 -23.703125 122.273438 -20.101562 122.359375 -16.84375 C 121.816406 -19.375 121.34375 -22.378906 120.9375 -25.859375 C 120.53125 -29.347656 120.125 -32.992188 119.71875 -36.796875 C 119.3125 -40.609375 118.8125 -44.367188 118.21875 -48.078125 C 117.632812 -51.785156 116.890625 -55.109375 115.984375 -58.046875 C 115.078125 -60.992188 113.941406 -63.375 112.578125 -65.1875 C 111.222656 -67 109.550781 -67.90625 107.5625 -67.90625 C 106.75 -67.90625 106.023438 -67.835938 105.390625 -67.703125 C 104.753906 -67.566406 103.941406 -67.09375 102.953125 -66.28125 L 101.59375 -66.953125 C 98.507812 -64.234375 95.925781 -60.609375 93.84375 -56.078125 C 91.757812 -51.554688 89.992188 -46.691406 88.546875 -41.484375 C 87.097656 -36.285156 85.875 -30.96875 84.875 -25.53125 C 83.882812 -20.101562 82.9375 -15.078125 82.03125 -10.453125 L 82.03125 -5.296875 C 83.476562 -12.453125 84.8125 -19.492188 86.03125 -26.421875 C 87.257812 -33.347656 89.050781 -40.066406 91.40625 -46.578125 C 89.59375 -40.960938 88.1875 -35.164062 87.1875 -29.1875 C 86.195312 -23.21875 85.066406 -17.109375 83.796875 -10.859375 C 83.796875 -10.234375 83.660156 -9.375 83.390625 -8.28125 C 83.117188 -7.195312 82.664062 -5.566406 82.03125 -3.390625 L 67.09375 -4.890625 Z M 67.640625 -13.3125 C 67.367188 -15.757812 67.117188 -18.882812 66.890625 -22.6875 C 66.660156 -26.488281 66.363281 -30.515625 66 -34.765625 C 65.644531 -39.023438 65.148438 -43.328125 64.515625 -47.671875 C 63.878906 -52.015625 62.992188 -55.925781 61.859375 -59.40625 C 60.734375 -62.894531 59.332031 -65.726562 57.65625 -67.90625 C 55.976562 -70.082031 53.875 -71.171875 51.34375 -71.171875 C 50.519531 -71.171875 49.65625 -70.988281 48.75 -70.625 C 47.851562 -70.257812 46.992188 -69.851562 46.171875 -69.40625 C 46.441406 -69.488281 46.671875 -69.53125 46.859375 -69.53125 L 46.984375 -69.53125 C 46.984375 -69.445312 46.847656 -69.269531 46.578125 -69 C 49.023438 -69.8125 50.925781 -70.21875 52.28125 -70.21875 C 54.007812 -69.582031 55.550781 -68.175781 56.90625 -66 C 58.257812 -63.832031 59.410156 -61.226562 60.359375 -58.1875 C 61.316406 -55.15625 62.132812 -51.875 62.8125 -48.34375 C 63.488281 -44.8125 64.007812 -41.4375 64.375 -38.21875 C 64.738281 -35.007812 65.007812 -32.132812 65.1875 -29.59375 C 65.375 -27.0625 65.46875 -25.253906 65.46875 -24.171875 C 65.738281 -21.453125 65.984375 -18.78125 66.203125 -16.15625 C 66.429688 -13.53125 66.546875 -10.90625 66.546875 -8.28125 Z M 79.046875 -49.84375 C 79.046875 -49.75 79.132812 -49.34375 79.3125 -48.625 C 79.5 -47.988281 79.632812 -47.582031 79.71875 -47.40625 C 79.988281 -48.300781 80.578125 -49.769531 81.484375 -51.8125 C 82.390625 -53.851562 83.382812 -56.023438 84.46875 -58.328125 C 85.5625 -60.640625 86.601562 -62.789062 87.59375 -64.78125 C 87.957031 -65.59375 88.273438 -66.316406 88.546875 -66.953125 C 88.273438 -66.410156 87.914062 -65.820312 87.46875 -65.1875 C 86.46875 -63.375 85.378906 -61.492188 84.203125 -59.546875 C 83.023438 -57.609375 81.9375 -55.734375 80.9375 -53.921875 C 79.945312 -52.109375 79.316406 -50.75 79.046875 -49.84375 Z M 89.765625 -51.46875 C 87.960938 -46.851562 86.378906 -41.988281 85.015625 -36.875 C 83.660156 -31.757812 82.441406 -26.484375 81.359375 -21.046875 L 81.625 -18.875 C 82.800781 -25.394531 84.160156 -31.960938 85.703125 -38.578125 C 87.148438 -44.367188 89.003906 -49.84375 91.265625 -55 C 91.171875 -54.726562 91.082031 -54.503906 91 -54.328125 C 90.539062 -53.421875 90.128906 -52.46875 89.765625 -51.46875 Z M 67.640625 -33 C 67.816406 -31.550781 67.925781 -30.144531 67.96875 -28.78125 C 68.019531 -27.425781 68.085938 -26.160156 68.171875 -24.984375 L 68.578125 -18.46875 L 68.71875 -19.15625 C 68.625 -20.414062 68.578125 -21.632812 68.578125 -22.8125 L 68.578125 -26.21875 Z M 112.1875 -79.59375 C 110.550781 -80.039062 109.007812 -80.265625 107.5625 -80.265625 L 106.0625 -80.265625 C 105.4375 -80.265625 105.125 -80.21875 105.125 -80.125 L 105.25 -80.125 C 106.695312 -79.769531 108.054688 -79.59375 109.328125 -79.59375 Z M 92.078125 -48.484375 C 92.535156 -49.753906 92.941406 -50.976562 93.296875 -52.15625 C 93.753906 -53.332031 94.117188 -54.144531 94.390625 -54.59375 C 94.390625 -54.414062 94.300781 -54.054688 94.125 -53.515625 C 93.9375 -52.878906 93.570312 -51.925781 93.03125 -50.65625 Z M 121.546875 -73.875 C 121.097656 -74.425781 120.507812 -74.972656 119.78125 -75.515625 C 119.238281 -75.878906 118.742188 -76.195312 118.296875 -76.46875 C 119.378906 -75.738281 120.460938 -74.875 121.546875 -73.875 Z M 89.234375 -68.171875 C 89.046875 -67.992188 88.910156 -67.722656 88.828125 -67.359375 C 89.003906 -67.628906 89.140625 -67.898438 89.234375 -68.171875 Z M 89.234375 -68.171875 "/></g></g></g><g fill="#24429b" fill-opacity="1"><g transform="translate(491.233938, 434.6221)"><g><path d="M 10.328125 -7.0625 C 10.679688 -9.59375 11.015625 -12.554688 11.328125 -15.953125 C 11.648438 -19.347656 11.945312 -22.765625 12.21875 -26.203125 C 12.488281 -29.648438 12.757812 -33.023438 13.03125 -36.328125 C 13.3125 -39.628906 13.585938 -42.503906 13.859375 -44.953125 C 13.398438 -42.503906 12.988281 -39.695312 12.625 -36.53125 C 12.269531 -33.363281 11.910156 -30.101562 11.546875 -26.75 C 11.179688 -23.40625 10.816406 -20.078125 10.453125 -16.765625 C 10.097656 -13.460938 9.78125 -10.5 9.5 -7.875 C 8.144531 -8.78125 7.46875 -10.003906 7.46875 -11.546875 C 7.46875 -13.359375 7.507812 -14.875 7.59375 -16.09375 C 7.6875 -17.3125 7.828125 -18.738281 8.015625 -20.375 L 9.5 -21.734375 C 9.414062 -22.179688 9.375 -22.585938 9.375 -22.953125 L 9.375 -24.3125 C 9.375 -26.394531 9.597656 -28.769531 10.046875 -31.4375 C 10.503906 -34.113281 11.023438 -36.832031 11.609375 -39.59375 C 12.203125 -42.351562 12.722656 -45.019531 13.171875 -47.59375 C 13.628906 -50.175781 13.859375 -52.421875 13.859375 -54.328125 L 12.21875 -54.734375 C 12.039062 -52.554688 11.769531 -50.085938 11.40625 -47.328125 C 11.039062 -44.566406 10.65625 -41.710938 10.25 -38.765625 C 9.84375 -35.828125 9.457031 -32.910156 9.09375 -30.015625 C 8.914062 -28.472656 8.738281 -27.023438 8.5625 -25.671875 C 8.738281 -28.203125 8.960938 -30.914062 9.234375 -33.8125 C 9.691406 -37.976562 10.164062 -42.117188 10.65625 -46.234375 C 11.15625 -50.359375 11.628906 -54.410156 12.078125 -58.390625 C 12.535156 -62.378906 12.992188 -66.050781 13.453125 -69.40625 C 13.453125 -70.757812 13.789062 -72.226562 14.46875 -73.8125 C 15.144531 -75.394531 15.617188 -77.046875 15.890625 -78.765625 C 16.429688 -78.585938 16.882812 -78.5 17.25 -78.5 L 18.203125 -78.5 C 19.109375 -78.5 19.695312 -78.296875 19.96875 -77.890625 C 20.238281 -77.484375 20.375 -76.914062 20.375 -76.1875 L 20.375 -75.515625 L 21.59375 -75.109375 C 22.320312 -76.460938 23.179688 -77.546875 24.171875 -78.359375 C 25.171875 -79.179688 26.164062 -79.59375 27.15625 -79.59375 C 29.332031 -79.59375 30.421875 -77.28125 30.421875 -72.65625 C 30.421875 -70.21875 30.171875 -67.613281 29.671875 -64.84375 C 29.171875 -62.082031 28.921875 -59.390625 28.921875 -56.765625 L 28.921875 -55 C 28.921875 -52.101562 28.601562 -48.957031 27.96875 -45.5625 C 27.34375 -42.164062 26.644531 -38.722656 25.875 -35.234375 C 25.101562 -31.753906 24.398438 -28.382812 23.765625 -25.125 C 23.128906 -21.863281 22.8125 -18.875 22.8125 -16.15625 C 22.8125 -15.53125 22.859375 -14.851562 22.953125 -14.125 C 23.046875 -13.394531 23.09375 -12.71875 23.09375 -12.09375 C 23.09375 -10.726562 22.84375 -9.882812 22.34375 -9.5625 C 21.84375 -9.25 21.226562 -9.09375 20.5 -9.09375 C 20.5 -10.269531 20.453125 -11.71875 20.359375 -13.4375 C 20.273438 -15.164062 20.234375 -16.707031 20.234375 -18.0625 C 20.054688 -17.0625 19.96875 -15.703125 19.96875 -13.984375 C 19.96875 -12.265625 19.875 -10.632812 19.6875 -9.09375 L 17.65625 -9.09375 L 17.65625 -7.46875 C 16.84375 -6.019531 15.753906 -5.296875 14.390625 -5.296875 C 13.765625 -5.296875 13.039062 -5.476562 12.21875 -5.84375 C 11.40625 -6.207031 10.773438 -6.613281 10.328125 -7.0625 Z M 38.296875 -111.359375 C 36.753906 -110.460938 35.347656 -109.285156 34.078125 -107.828125 C 32.816406 -106.378906 31.507812 -104.976562 30.15625 -103.625 C 30.96875 -104.164062 31.691406 -104.753906 32.328125 -105.390625 C 32.960938 -106.023438 33.617188 -106.660156 34.296875 -107.296875 C 34.972656 -107.929688 35.695312 -108.5625 36.46875 -109.1875 C 37.238281 -109.820312 38.117188 -110.410156 39.109375 -110.953125 C 39.378906 -110.597656 39.628906 -110.28125 39.859375 -110 C 40.085938 -109.726562 40.203125 -109.457031 40.203125 -109.1875 L 37.078125 -106.0625 C 37.078125 -106.25 36.914062 -106.429688 36.59375 -106.609375 C 36.28125 -106.796875 36.035156 -106.890625 35.859375 -106.890625 C 35.585938 -105.984375 35.132812 -105.253906 34.5 -104.703125 C 33.863281 -104.160156 33.226562 -103.660156 32.59375 -103.203125 C 31.957031 -102.753906 31.320312 -102.257812 30.6875 -101.71875 C 30.0625 -101.175781 29.609375 -100.453125 29.328125 -99.546875 L 29.328125 -99.28125 C 29.328125 -99.1875 29.46875 -99.140625 29.75 -99.140625 L 36.53125 -105.53125 L 33.953125 -102.953125 C 32.679688 -101.679688 31.34375 -100.390625 29.9375 -99.078125 C 28.539062 -97.765625 27.226562 -96.609375 26 -95.609375 C 24.78125 -94.617188 24.035156 -94.125 23.765625 -94.125 L 23.625 -94.25 C 23 -94.4375 22.34375 -94.53125 21.65625 -94.53125 C 20.976562 -94.53125 20.28125 -94.570312 19.5625 -94.65625 C 19.5625 -95.382812 19.445312 -96.15625 19.21875 -96.96875 C 18.988281 -97.78125 18.875 -98.414062 18.875 -98.875 C 18.875 -99.320312 19.101562 -99.546875 19.5625 -99.546875 C 19.5625 -99.816406 19.398438 -100.242188 19.078125 -100.828125 C 18.765625 -101.421875 18.425781 -102.101562 18.0625 -102.875 C 17.695312 -103.644531 17.351562 -104.457031 17.03125 -105.3125 C 16.71875 -106.175781 16.5625 -107.0625 16.5625 -107.96875 C 16.5625 -108.875 16.945312 -109.753906 17.71875 -110.609375 C 18.488281 -111.472656 19.394531 -112.222656 20.4375 -112.859375 C 21.476562 -113.492188 22.492188 -114.035156 23.484375 -114.484375 C 24.484375 -114.941406 25.210938 -115.257812 25.671875 -115.4375 C 26.035156 -115.4375 26.171875 -115.640625 26.078125 -116.046875 C 25.984375 -116.453125 26.117188 -116.65625 26.484375 -116.65625 L 28.921875 -115.84375 C 28.742188 -115.394531 28.175781 -114.648438 27.21875 -113.609375 C 26.269531 -112.566406 25.570312 -111.816406 25.125 -111.359375 C 25.757812 -111.816406 26.503906 -112.5 27.359375 -113.40625 C 28.222656 -114.3125 28.878906 -114.988281 29.328125 -115.4375 C 29.785156 -115.257812 30.191406 -115.078125 30.546875 -114.890625 C 30.910156 -114.710938 31.1875 -114.625 31.375 -114.625 L 31.78125 -115.03125 C 32.414062 -115.03125 33.117188 -114.894531 33.890625 -114.625 C 34.660156 -114.351562 35.359375 -114.035156 35.984375 -113.671875 C 36.617188 -113.304688 37.160156 -112.898438 37.609375 -112.453125 C 38.066406 -112.003906 38.296875 -111.640625 38.296875 -111.359375 Z M 8.28125 -22.40625 C 8.375 -23.40625 8.46875 -24.398438 8.5625 -25.390625 C 8.46875 -24.304688 8.375 -23.3125 8.28125 -22.40625 Z M 8.28125 -22.40625 "/></g></g></g><g fill="#24429b" fill-opacity="1"><g transform="translate(532.787548, 434.6221)"><g><path d="M 42.78125 -11.546875 C 42.238281 -11.546875 41.695312 -11.273438 41.15625 -10.734375 C 39.25 -10.003906 37.273438 -9.390625 35.234375 -8.890625 C 33.203125 -8.398438 31.097656 -8.15625 28.921875 -8.15625 C 22.765625 -8.15625 18.144531 -9.941406 15.0625 -13.515625 C 11.988281 -17.085938 10.453125 -22.269531 10.453125 -29.0625 C 10.453125 -32.320312 10.585938 -35.582031 10.859375 -38.84375 C 11.128906 -42.007812 11.3125 -44.953125 11.40625 -47.671875 C 11.132812 -44.859375 10.816406 -42.050781 10.453125 -39.25 C 10.003906 -36.257812 9.78125 -33.132812 9.78125 -29.875 C 9.78125 -28.25 9.9375 -26.164062 10.25 -23.625 C 10.570312 -21.09375 11.363281 -18.625 12.625 -16.21875 C 13.894531 -13.820312 15.84375 -11.738281 18.46875 -9.96875 C 21.09375 -8.207031 24.710938 -7.328125 29.328125 -7.328125 C 31.503906 -7.328125 33.609375 -7.578125 35.640625 -8.078125 C 37.679688 -8.578125 39.65625 -9.191406 41.5625 -9.921875 C 40.289062 -8.378906 38.59375 -7.15625 36.46875 -6.25 C 34.34375 -5.34375 31.828125 -4.890625 28.921875 -4.890625 C 25.210938 -4.890625 21.613281 -5.65625 18.125 -7.1875 C 14.644531 -8.726562 12 -11.3125 10.1875 -14.9375 L 11 -16.4375 C 9.375 -19.332031 8.46875 -21.929688 8.28125 -24.234375 C 8.101562 -26.546875 7.921875 -28.832031 7.734375 -31.09375 L 10.046875 -54.875 C 10.503906 -58.945312 10.820312 -63.019531 11 -67.09375 L 10.59375 -67.359375 C 9.863281 -63.109375 9.273438 -59.035156 8.828125 -55.140625 C 8.378906 -51.335938 8.015625 -47.582031 7.734375 -43.875 L 7.734375 -47.40625 C 8.285156 -51.5625 8.785156 -55.65625 9.234375 -59.6875 C 9.691406 -63.71875 10.28125 -67.816406 11 -71.984375 C 11.726562 -76.148438 12.65625 -80.492188 13.78125 -85.015625 C 14.914062 -89.546875 16.429688 -94.390625 18.328125 -99.546875 C 20.867188 -102.992188 22.363281 -106.390625 22.8125 -109.734375 C 23.082031 -109.734375 23.351562 -109.6875 23.625 -109.59375 C 23.894531 -109.507812 24.441406 -109.46875 25.265625 -109.46875 C 25.804688 -109.46875 26.28125 -109.351562 26.6875 -109.125 C 27.09375 -108.894531 27.296875 -108.421875 27.296875 -107.703125 C 27.296875 -106.890625 27.023438 -105.664062 26.484375 -104.03125 C 26.660156 -104.03125 26.929688 -103.960938 27.296875 -103.828125 C 27.660156 -103.691406 27.929688 -103.625 28.109375 -103.625 C 29.378906 -105.800781 30.535156 -107.65625 31.578125 -109.1875 C 32.617188 -110.726562 33.632812 -111.5 34.625 -111.5 C 35.257812 -111.5 35.828125 -111.113281 36.328125 -110.34375 C 36.828125 -109.570312 37.078125 -108.328125 37.078125 -106.609375 C 36.898438 -103.347656 36.378906 -100.269531 35.515625 -97.375 C 34.648438 -94.476562 33.71875 -91.671875 32.71875 -88.953125 C 31.726562 -86.242188 30.757812 -83.484375 29.8125 -80.671875 C 28.863281 -77.867188 28.160156 -74.925781 27.703125 -71.84375 C 27.160156 -68.3125 26.617188 -64.710938 26.078125 -61.046875 C 25.535156 -57.378906 25.035156 -53.734375 24.578125 -50.109375 C 24.128906 -46.492188 23.703125 -43.007812 23.296875 -39.65625 C 22.890625 -36.300781 22.59375 -33.175781 22.40625 -30.28125 C 22.40625 -27.65625 22.8125 -24.941406 23.625 -22.140625 C 24.082031 -21.410156 24.488281 -20.882812 24.84375 -20.5625 C 25.207031 -20.25 25.84375 -20.09375 26.75 -20.09375 C 27.84375 -20.09375 29.046875 -20.226562 30.359375 -20.5 C 31.671875 -20.78125 32.820312 -20.921875 33.8125 -20.921875 C 34.445312 -20.921875 34.898438 -20.828125 35.171875 -20.640625 C 35.441406 -20.460938 35.671875 -20.144531 35.859375 -19.6875 C 34.585938 -18.96875 33.226562 -18.425781 31.78125 -18.0625 C 30.332031 -17.695312 28.972656 -17.515625 27.703125 -17.515625 L 25.796875 -17.515625 C 25.441406 -17.515625 25.128906 -17.515625 24.859375 -17.515625 C 25.847656 -17.335938 27.113281 -17.25 28.65625 -17.25 C 31.007812 -17.25 33.410156 -17.789062 35.859375 -18.875 C 35.859375 -18.0625 36.128906 -17.382812 36.671875 -16.84375 C 36.941406 -16.9375 37.570312 -17.253906 38.5625 -17.796875 C 39.5625 -18.335938 40.425781 -18.609375 41.15625 -18.609375 C 43.320312 -18.609375 44.40625 -17.703125 44.40625 -15.890625 C 44.40625 -15.617188 44.316406 -15.210938 44.140625 -14.671875 C 43.960938 -14.128906 43.507812 -13.085938 42.78125 -11.546875 Z M 6.796875 -29.75 C 6.796875 -30.375 6.816406 -31.1875 6.859375 -32.1875 C 6.898438 -33.1875 6.96875 -34.179688 7.0625 -35.171875 L 7.328125 -38.296875 C 7.421875 -39.378906 7.515625 -40.332031 7.609375 -41.15625 C 7.515625 -39.789062 7.441406 -38.085938 7.390625 -36.046875 C 7.347656 -34.015625 7.328125 -32.503906 7.328125 -31.515625 L 7.328125 -26.078125 C 7.328125 -25.347656 7.347656 -24.578125 7.390625 -23.765625 C 7.441406 -22.953125 7.515625 -22.179688 7.609375 -21.453125 C 7.242188 -22.898438 7.015625 -24.328125 6.921875 -25.734375 C 6.835938 -27.140625 6.796875 -28.476562 6.796875 -29.75 Z M 20.09375 -30.28125 C 20.09375 -32.363281 20.226562 -34.398438 20.5 -36.390625 C 20.78125 -38.390625 21.007812 -40.429688 21.1875 -42.515625 C 20.726562 -40.429688 20.382812 -38.390625 20.15625 -36.390625 C 19.9375 -34.398438 19.738281 -32.363281 19.5625 -30.28125 L 19.5625 -28.390625 C 19.5625 -27.753906 19.601562 -27.070312 19.6875 -26.34375 L 19.6875 -27.296875 C 19.6875 -27.753906 19.734375 -28.253906 19.828125 -28.796875 C 19.921875 -29.335938 20.007812 -29.832031 20.09375 -30.28125 Z M 7.609375 -41.28125 C 7.609375 -41.46875 7.609375 -41.601562 7.609375 -41.6875 C 7.691406 -41.78125 7.734375 -41.875 7.734375 -41.96875 C 7.734375 -41.601562 7.691406 -41.375 7.609375 -41.28125 Z M 7.609375 -41.28125 "/></g></g></g><g fill="#24429b" fill-opacity="1"><g transform="translate(577.192911, 434.6221)"><g><path d="M 9.375 -4.75 C 11.632812 -6.113281 13.710938 -7.878906 15.609375 -10.046875 C 17.515625 -12.222656 19.507812 -14.351562 21.59375 -16.4375 C 20.320312 -15.625 19.191406 -14.71875 18.203125 -13.71875 L 15.34375 -10.859375 C 14.351562 -9.867188 13.289062 -8.894531 12.15625 -7.9375 C 11.019531 -6.988281 9.6875 -6.15625 8.15625 -5.4375 C 7.695312 -5.882812 7.351562 -6.242188 7.125 -6.515625 C 6.90625 -6.785156 6.796875 -7.148438 6.796875 -7.609375 C 6.796875 -8.054688 6.835938 -8.328125 6.921875 -8.421875 L 11.265625 -12.765625 C 11.265625 -12.398438 11.488281 -12.101562 11.9375 -11.875 C 12.394531 -11.65625 12.757812 -11.546875 13.03125 -11.546875 C 13.488281 -12.898438 14.171875 -13.984375 15.078125 -14.796875 C 15.984375 -15.617188 16.929688 -16.367188 17.921875 -17.046875 C 18.921875 -17.722656 19.875 -18.46875 20.78125 -19.28125 C 21.6875 -20.09375 22.363281 -21.179688 22.8125 -22.546875 C 22.726562 -22.640625 22.6875 -22.726562 22.6875 -22.8125 C 22.5 -23 22.359375 -23.09375 22.265625 -23.09375 L 12.09375 -13.578125 C 12.71875 -14.304688 13.753906 -15.53125 15.203125 -17.25 C 16.660156 -18.96875 18.15625 -20.734375 19.6875 -22.546875 C 21.226562 -24.359375 22.65625 -25.941406 23.96875 -27.296875 C 25.28125 -28.648438 26.117188 -29.328125 26.484375 -29.328125 L 26.625 -29.203125 C 27.34375 -28.929688 28.359375 -28.679688 29.671875 -28.453125 C 30.984375 -28.222656 31.957031 -28.109375 32.59375 -28.109375 C 33.226562 -28.109375 33.953125 -28.242188 34.765625 -28.515625 C 34.765625 -27.972656 35.035156 -27.335938 35.578125 -26.609375 C 36.117188 -25.890625 36.707031 -25.164062 37.34375 -24.4375 C 37.976562 -23.71875 38.566406 -23.019531 39.109375 -22.34375 C 39.648438 -21.664062 39.921875 -21.144531 39.921875 -20.78125 C 39.921875 -20.144531 39.695312 -19.828125 39.25 -19.828125 L 38.84375 -19.828125 C 38.84375 -19.015625 38.910156 -17.585938 39.046875 -15.546875 C 39.179688 -13.515625 39.25 -11.1875 39.25 -8.5625 C 39.25 -7.113281 38.796875 -5.84375 37.890625 -4.75 C 36.984375 -3.664062 35.941406 -2.710938 34.765625 -1.890625 C 33.585938 -1.078125 32.382812 -0.398438 31.15625 0.140625 C 29.9375 0.679688 29.015625 1.085938 28.390625 1.359375 C 27.835938 1.359375 27.609375 1.648438 27.703125 2.234375 C 27.796875 2.828125 27.613281 3.125 27.15625 3.125 L 26.484375 3.125 C 26.210938 3.125 25.804688 3.007812 25.265625 2.78125 C 24.722656 2.550781 24.132812 2.257812 23.5 1.90625 C 23.582031 1.632812 24.054688 0.929688 24.921875 -0.203125 C 25.785156 -1.335938 26.710938 -2.5625 27.703125 -3.875 C 28.703125 -5.1875 29.65625 -6.40625 30.5625 -7.53125 C 31.46875 -8.664062 32.054688 -9.367188 32.328125 -9.640625 C 31.867188 -9.367188 31.140625 -8.710938 30.140625 -7.671875 C 29.148438 -6.628906 28.132812 -5.492188 27.09375 -4.265625 C 26.050781 -3.046875 25.054688 -1.914062 24.109375 -0.875 C 23.160156 0.15625 22.546875 0.8125 22.265625 1.09375 C 21.085938 0.457031 20.273438 0.140625 19.828125 0.140625 L 19.15625 0.671875 C 18.15625 0.671875 17.085938 0.46875 15.953125 0.0625 C 14.828125 -0.34375 13.785156 -0.816406 12.828125 -1.359375 C 11.878906 -1.898438 11.066406 -2.441406 10.390625 -2.984375 C 9.710938 -3.523438 9.375 -3.929688 9.375 -4.203125 Z M 9.375 -4.75 "/></g></g></g><g fill="#24429b" fill-opacity="1"><g transform="translate(621.190886, 434.6221)"><g><path d="M 10.328125 -7.0625 C 10.679688 -9.59375 11.015625 -12.554688 11.328125 -15.953125 C 11.648438 -19.347656 11.945312 -22.765625 12.21875 -26.203125 C 12.488281 -29.648438 12.757812 -33.023438 13.03125 -36.328125 C 13.3125 -39.628906 13.585938 -42.503906 13.859375 -44.953125 C 13.398438 -42.503906 12.988281 -39.695312 12.625 -36.53125 C 12.269531 -33.363281 11.910156 -30.101562 11.546875 -26.75 C 11.179688 -23.40625 10.816406 -20.078125 10.453125 -16.765625 C 10.097656 -13.460938 9.78125 -10.5 9.5 -7.875 C 8.144531 -8.78125 7.46875 -10.003906 7.46875 -11.546875 C 7.46875 -13.359375 7.507812 -14.875 7.59375 -16.09375 C 7.6875 -17.3125 7.828125 -18.738281 8.015625 -20.375 L 9.5 -21.734375 C 9.414062 -22.179688 9.375 -22.585938 9.375 -22.953125 L 9.375 -24.3125 C 9.375 -26.394531 9.597656 -28.769531 10.046875 -31.4375 C 10.503906 -34.113281 11.023438 -36.832031 11.609375 -39.59375 C 12.203125 -42.351562 12.722656 -45.019531 13.171875 -47.59375 C 13.628906 -50.175781 13.859375 -52.421875 13.859375 -54.328125 L 12.21875 -54.734375 C 12.039062 -52.554688 11.769531 -50.085938 11.40625 -47.328125 C 11.039062 -44.566406 10.65625 -41.710938 10.25 -38.765625 C 9.84375 -35.828125 9.457031 -32.910156 9.09375 -30.015625 C 8.914062 -28.472656 8.738281 -27.023438 8.5625 -25.671875 C 8.738281 -28.203125 8.960938 -30.914062 9.234375 -33.8125 C 9.691406 -37.976562 10.164062 -42.117188 10.65625 -46.234375 C 11.15625 -50.359375 11.628906 -54.410156 12.078125 -58.390625 C 12.535156 -62.378906 12.992188 -66.050781 13.453125 -69.40625 C 13.453125 -70.757812 13.789062 -72.226562 14.46875 -73.8125 C 15.144531 -75.394531 15.617188 -77.046875 15.890625 -78.765625 C 16.429688 -78.585938 16.882812 -78.5 17.25 -78.5 L 18.203125 -78.5 C 19.109375 -78.5 19.695312 -78.296875 19.96875 -77.890625 C 20.238281 -77.484375 20.375 -76.914062 20.375 -76.1875 L 20.375 -75.515625 L 21.59375 -75.109375 C 22.320312 -76.460938 23.179688 -77.546875 24.171875 -78.359375 C 25.171875 -79.179688 26.164062 -79.59375 27.15625 -79.59375 C 29.332031 -79.59375 30.421875 -77.28125 30.421875 -72.65625 C 30.421875 -70.21875 30.171875 -67.613281 29.671875 -64.84375 C 29.171875 -62.082031 28.921875 -59.390625 28.921875 -56.765625 L 28.921875 -55 C 28.921875 -52.101562 28.601562 -48.957031 27.96875 -45.5625 C 27.34375 -42.164062 26.644531 -38.722656 25.875 -35.234375 C 25.101562 -31.753906 24.398438 -28.382812 23.765625 -25.125 C 23.128906 -21.863281 22.8125 -18.875 22.8125 -16.15625 C 22.8125 -15.53125 22.859375 -14.851562 22.953125 -14.125 C 23.046875 -13.394531 23.09375 -12.71875 23.09375 -12.09375 C 23.09375 -10.726562 22.84375 -9.882812 22.34375 -9.5625 C 21.84375 -9.25 21.226562 -9.09375 20.5 -9.09375 C 20.5 -10.269531 20.453125 -11.71875 20.359375 -13.4375 C 20.273438 -15.164062 20.234375 -16.707031 20.234375 -18.0625 C 20.054688 -17.0625 19.96875 -15.703125 19.96875 -13.984375 C 19.96875 -12.265625 19.875 -10.632812 19.6875 -9.09375 L 17.65625 -9.09375 L 17.65625 -7.46875 C 16.84375 -6.019531 15.753906 -5.296875 14.390625 -5.296875 C 13.765625 -5.296875 13.039062 -5.476562 12.21875 -5.84375 C 11.40625 -6.207031 10.773438 -6.613281 10.328125 -7.0625 Z M 38.296875 -111.359375 C 36.753906 -110.460938 35.347656 -109.285156 34.078125 -107.828125 C 32.816406 -106.378906 31.507812 -104.976562 30.15625 -103.625 C 30.96875 -104.164062 31.691406 -104.753906 32.328125 -105.390625 C 32.960938 -106.023438 33.617188 -106.660156 34.296875 -107.296875 C 34.972656 -107.929688 35.695312 -108.5625 36.46875 -109.1875 C 37.238281 -109.820312 38.117188 -110.410156 39.109375 -110.953125 C 39.378906 -110.597656 39.628906 -110.28125 39.859375 -110 C 40.085938 -109.726562 40.203125 -109.457031 40.203125 -109.1875 L 37.078125 -106.0625 C 37.078125 -106.25 36.914062 -106.429688 36.59375 -106.609375 C 36.28125 -106.796875 36.035156 -106.890625 35.859375 -106.890625 C 35.585938 -105.984375 35.132812 -105.253906 34.5 -104.703125 C 33.863281 -104.160156 33.226562 -103.660156 32.59375 -103.203125 C 31.957031 -102.753906 31.320312 -102.257812 30.6875 -101.71875 C 30.0625 -101.175781 29.609375 -100.453125 29.328125 -99.546875 L 29.328125 -99.28125 C 29.328125 -99.1875 29.46875 -99.140625 29.75 -99.140625 L 36.53125 -105.53125 L 33.953125 -102.953125 C 32.679688 -101.679688 31.34375 -100.390625 29.9375 -99.078125 C 28.539062 -97.765625 27.226562 -96.609375 26 -95.609375 C 24.78125 -94.617188 24.035156 -94.125 23.765625 -94.125 L 23.625 -94.25 C 23 -94.4375 22.34375 -94.53125 21.65625 -94.53125 C 20.976562 -94.53125 20.28125 -94.570312 19.5625 -94.65625 C 19.5625 -95.382812 19.445312 -96.15625 19.21875 -96.96875 C 18.988281 -97.78125 18.875 -98.414062 18.875 -98.875 C 18.875 -99.320312 19.101562 -99.546875 19.5625 -99.546875 C 19.5625 -99.816406 19.398438 -100.242188 19.078125 -100.828125 C 18.765625 -101.421875 18.425781 -102.101562 18.0625 -102.875 C 17.695312 -103.644531 17.351562 -104.457031 17.03125 -105.3125 C 16.71875 -106.175781 16.5625 -107.0625 16.5625 -107.96875 C 16.5625 -108.875 16.945312 -109.753906 17.71875 -110.609375 C 18.488281 -111.472656 19.394531 -112.222656 20.4375 -112.859375 C 21.476562 -113.492188 22.492188 -114.035156 23.484375 -114.484375 C 24.484375 -114.941406 25.210938 -115.257812 25.671875 -115.4375 C 26.035156 -115.4375 26.171875 -115.640625 26.078125 -116.046875 C 25.984375 -116.453125 26.117188 -116.65625 26.484375 -116.65625 L 28.921875 -115.84375 C 28.742188 -115.394531 28.175781 -114.648438 27.21875 -113.609375 C 26.269531 -112.566406 25.570312 -111.816406 25.125 -111.359375 C 25.757812 -111.816406 26.503906 -112.5 27.359375 -113.40625 C 28.222656 -114.3125 28.878906 -114.988281 29.328125 -115.4375 C 29.785156 -115.257812 30.191406 -115.078125 30.546875 -114.890625 C 30.910156 -114.710938 31.1875 -114.625 31.375 -114.625 L 31.78125 -115.03125 C 32.414062 -115.03125 33.117188 -114.894531 33.890625 -114.625 C 34.660156 -114.351562 35.359375 -114.035156 35.984375 -113.671875 C 36.617188 -113.304688 37.160156 -112.898438 37.609375 -112.453125 C 38.066406 -112.003906 38.296875 -111.640625 38.296875 -111.359375 Z M 8.28125 -22.40625 C 8.375 -23.40625 8.46875 -24.398438 8.5625 -25.390625 C 8.46875 -24.304688 8.375 -23.3125 8.28125 -22.40625 Z M 8.28125 -22.40625 "/></g></g></g><g fill="#24429b" fill-opacity="1"><g transform="translate(662.744496, 434.6221)"><g><path d="M 35.578125 -81.765625 C 35.671875 -81.304688 36.171875 -81.078125 37.078125 -81.078125 L 37.34375 -81.078125 C 37.882812 -81.078125 38.25 -81.03125 38.4375 -80.9375 C 43.144531 -79.488281 47.828125 -77.382812 52.484375 -74.625 C 57.148438 -71.863281 61.363281 -68.554688 65.125 -64.703125 C 68.882812 -60.859375 71.914062 -56.492188 74.21875 -51.609375 C 76.53125 -46.722656 77.6875 -41.472656 77.6875 -35.859375 C 77.6875 -30.960938 76.734375 -26.25 74.828125 -21.71875 C 72.929688 -17.195312 70.304688 -13.265625 66.953125 -9.921875 C 70.390625 -12.898438 73.128906 -16.628906 75.171875 -21.109375 C 77.210938 -25.597656 78.234375 -30.421875 78.234375 -35.578125 C 78.234375 -41.378906 77.007812 -46.789062 74.5625 -51.8125 C 72.113281 -56.832031 68.988281 -61.332031 65.1875 -65.3125 C 61.382812 -69.300781 57.148438 -72.722656 52.484375 -75.578125 C 47.828125 -78.429688 43.28125 -80.628906 38.84375 -82.171875 C 42.28125 -82.171875 45.785156 -81.398438 49.359375 -79.859375 C 52.941406 -78.316406 56.363281 -76.300781 59.625 -73.8125 C 62.882812 -71.320312 65.894531 -68.46875 68.65625 -65.25 C 71.414062 -62.039062 73.742188 -58.757812 75.640625 -55.40625 L 74.703125 -54.046875 C 76.503906 -51.335938 77.878906 -48.394531 78.828125 -45.21875 C 79.785156 -42.050781 80.265625 -38.796875 80.265625 -35.453125 C 80.265625 -29.015625 78.882812 -23.375 76.125 -18.53125 C 73.363281 -13.6875 69.875 -9.65625 65.65625 -6.4375 C 61.445312 -3.226562 56.832031 -0.8125 51.8125 0.8125 C 46.789062 2.445312 42.0625 3.265625 37.625 3.265625 C 35.082031 3.265625 32.519531 2.988281 29.9375 2.4375 C 27.363281 1.894531 24.765625 0.992188 22.140625 -0.265625 L 22.140625 0.546875 C 24.671875 1.992188 27.269531 2.988281 29.9375 3.53125 C 32.613281 4.070312 35.265625 4.34375 37.890625 4.34375 C 44.410156 4.34375 50.816406 2.914062 57.109375 0.0625 C 63.398438 -2.78125 68.71875 -6.785156 73.0625 -11.953125 C 68.894531 -6.609375 63.710938 -2.441406 57.515625 0.546875 C 51.316406 3.535156 44.863281 5.03125 38.15625 5.03125 C 31.28125 5.03125 25.710938 3.691406 21.453125 1.015625 C 17.203125 -1.648438 13.875 -4.929688 11.46875 -8.828125 C 9.070312 -12.722656 7.46875 -16.84375 6.65625 -21.1875 C 5.84375 -25.53125 5.4375 -29.421875 5.4375 -32.859375 C 5.4375 -37.484375 6.046875 -42.015625 7.265625 -46.453125 C 8.484375 -50.890625 10.359375 -54.960938 12.890625 -58.671875 C 15.429688 -62.378906 18.691406 -65.566406 22.671875 -68.234375 C 26.660156 -70.910156 31.460938 -72.789062 37.078125 -73.875 L 33.140625 -74.828125 C 31.234375 -75.285156 29.875 -75.828125 29.0625 -76.453125 C 28.25 -77.085938 27.84375 -77.632812 27.84375 -78.09375 C 27.84375 -78.8125 28.632812 -79.601562 30.21875 -80.46875 C 31.800781 -81.332031 33.585938 -81.765625 35.578125 -81.765625 Z M 29.46875 -64.640625 C 31.914062 -65.546875 34.269531 -66 36.53125 -66 C 38.789062 -66 40.53125 -65.660156 41.75 -64.984375 C 42.976562 -64.304688 43.59375 -63.601562 43.59375 -62.875 C 43.59375 -62.425781 43.070312 -61.929688 42.03125 -61.390625 C 40.988281 -60.847656 39.675781 -60.097656 38.09375 -59.140625 C 36.507812 -58.191406 34.789062 -56.992188 32.9375 -55.546875 C 31.082031 -54.097656 29.359375 -52.265625 27.765625 -50.046875 C 26.179688 -47.828125 24.867188 -45.132812 23.828125 -41.96875 C 22.785156 -38.800781 22.265625 -35.085938 22.265625 -30.828125 C 22.265625 -24.578125 23.664062 -19.867188 26.46875 -16.703125 C 29.28125 -13.535156 33.175781 -11.953125 38.15625 -11.953125 C 41.332031 -11.953125 44.570312 -12.492188 47.875 -13.578125 C 51.175781 -14.671875 54.160156 -16.210938 56.828125 -18.203125 C 59.503906 -20.191406 61.679688 -22.632812 63.359375 -25.53125 C 65.035156 -28.425781 65.875 -31.6875 65.875 -35.3125 C 65.875 -38.03125 65.394531 -40.742188 64.4375 -43.453125 C 63.488281 -46.171875 62.175781 -48.773438 60.5 -51.265625 C 58.820312 -53.753906 56.828125 -56.082031 54.515625 -58.25 C 52.210938 -60.425781 49.703125 -62.285156 46.984375 -63.828125 C 44.359375 -65.273438 42.207031 -66.382812 40.53125 -67.15625 C 38.863281 -67.925781 37.664062 -68.675781 36.9375 -69.40625 C 36.21875 -69.039062 35.203125 -68.609375 33.890625 -68.109375 C 32.578125 -67.609375 30.832031 -66.863281 28.65625 -65.875 Z M 38.578125 -71.03125 C 42.734375 -69.675781 46.710938 -67.640625 50.515625 -64.921875 C 53.773438 -62.472656 56.765625 -59.800781 59.484375 -56.90625 C 56.859375 -59.976562 54.007812 -62.738281 50.9375 -65.1875 C 47.40625 -68.082031 43.460938 -70.347656 39.109375 -71.984375 Z M 64.921875 -24.71875 C 63.554688 -21.820312 61.65625 -19.242188 59.21875 -16.984375 C 60.84375 -18.066406 62.21875 -19.375 63.34375 -20.90625 C 64.476562 -22.445312 65.410156 -23.988281 66.140625 -25.53125 C 66.867188 -27.070312 67.410156 -28.476562 67.765625 -29.75 C 68.035156 -30.925781 68.265625 -31.875 68.453125 -32.59375 C 67.453125 -30.238281 66.273438 -27.613281 64.921875 -24.71875 Z M 74.015625 -13.03125 C 73.921875 -12.851562 73.785156 -12.675781 73.609375 -12.5 C 73.515625 -12.40625 73.425781 -12.359375 73.34375 -12.359375 C 73.25 -12.359375 73.472656 -12.832031 74.015625 -13.78125 C 74.554688 -14.738281 75.210938 -15.875 75.984375 -17.1875 C 76.753906 -18.5 77.503906 -19.878906 78.234375 -21.328125 C 78.859375 -22.410156 79.3125 -23.359375 79.59375 -24.171875 C 78.320312 -20.273438 76.460938 -16.5625 74.015625 -13.03125 Z M 81.625 -35.046875 C 81.625 -33.585938 81.53125 -32.15625 81.34375 -30.75 C 81.164062 -29.351562 80.851562 -28.066406 80.40625 -26.890625 C 81.039062 -29.148438 81.359375 -31.6875 81.359375 -34.5 C 81.359375 -36.582031 81.175781 -38.617188 80.8125 -40.609375 C 80.539062 -42.328125 80.175781 -44.003906 79.71875 -45.640625 C 80.175781 -44.003906 80.582031 -42.375 80.9375 -40.75 C 81.394531 -38.9375 81.625 -37.035156 81.625 -35.046875 Z M 38.578125 -73.203125 L 37.34375 -73.75 C 37.257812 -73.5625 37.125 -73.378906 36.9375 -73.203125 C 36.757812 -73.023438 36.671875 -72.84375 36.671875 -72.65625 C 36.671875 -72.476562 36.78125 -72.226562 37 -71.90625 C 37.226562 -71.59375 37.4375 -71.347656 37.625 -71.171875 Z M 60.296875 -55.953125 C 60.023438 -56.316406 59.753906 -56.632812 59.484375 -56.90625 C 59.753906 -56.539062 60.023438 -56.222656 60.296875 -55.953125 Z M 79.59375 -24.171875 C 79.675781 -24.359375 79.71875 -24.539062 79.71875 -24.71875 C 79.71875 -24.539062 79.675781 -24.359375 79.59375 -24.171875 Z M 79.859375 -24.984375 C 79.765625 -24.898438 79.71875 -24.8125 79.71875 -24.71875 C 79.71875 -24.8125 79.765625 -24.898438 79.859375 -24.984375 Z M 79.859375 -24.984375 "/></g></g></g></svg>